
<svg width="87px" height="26px" viewBox="0 0 87 26" version="1.1" xmlns="http://www.w3.org/2000/svg" xmlns:xlink="http://www.w3.org/1999/xlink">
    <g id="Page-1" stroke="none" stroke-width="1" fill="none" fill-rule="evenodd">
        <g id="Web_design_Agape-(7)" transform="translate(-253.000000, -413.000000)">
            <g id="Group-2" transform="translate(253.887150, 413.501313)">
                <g id="Path-2" fill="#FFFF00">
                    <path d="M0,12.503937 L0,12.503937 C0,5.598206 5.5981906,0 12.5039373,0 L73.4803013,0 C76.796555,0 79.9769903,1.3173828 82.3219303,3.662323 C84.6668705,6.0072632 85.984238,9.187683 85.984238,12.503937 L85.984238,12.503937 L85.984238,12.503937 C85.984238,19.409668 80.3860477,25.007874 73.480301,25.007874 L12.503937,25.007874 C5.5981905,25.007874 0,19.4096684 0,12.503937 L0,12.503937 Z" id="Path"></path>
                </g>
                <path d="M16.2023603,15.183927 L18.7023603,9.590177 L19.9836103,9.590177 L22.4836103,15.183927 L21.1242353,15.183927 L19.0773603,10.246427 L19.5929853,10.246427 L17.5304853,15.183927 L16.2023603,15.183927 Z M17.4523603,13.980802 L17.7961103,12.996427 L20.6867353,12.996427 L21.0304853,13.980802 L17.4523603,13.980802 Z M23.0646497,15.183927 L23.0646497,9.590177 L24.3615247,9.590177 L24.3615247,14.121427 L27.1740247,14.121427 L27.1740247,15.183927 L23.0646497,15.183927 Z M27.8965894,15.183927 L27.8965894,9.590177 L30.3340894,9.590177 C30.8340894,9.590177 31.2611727,9.67351033 31.6153394,9.840177 C31.9799227,9.996427 32.2611727,10.2255937 32.4590894,10.527677 C32.6570061,10.8297603 32.7559644,11.1943437 32.7559644,11.621427 C32.7559644,12.0380937 32.6570061,12.3974687 32.4590894,12.699552 C32.2611727,13.0016353 31.9799227,13.2360103 31.6153394,13.402677 C31.2611727,13.558927 30.8340894,13.637052 30.3340894,13.637052 L28.6309644,13.637052 L29.1934644,13.058927 L29.1934644,15.183927 L27.8965894,15.183927 Z M29.1934644,13.199552 L28.6309644,12.590177 L30.2559644,12.590177 C30.6517977,12.590177 30.9486727,12.5068437 31.1465894,12.340177 C31.3445061,12.1630937 31.4434644,11.9235103 31.4434644,11.621427 C31.4434644,11.308927 31.3445061,11.0693437 31.1465894,10.902677 C30.9486727,10.7255937 30.6517977,10.637052 30.2559644,10.637052 L28.6309644,10.637052 L29.1934644,10.027677 L29.1934644,13.199552 Z M37.5162644,9.590177 L38.8131394,9.590177 L38.8131394,15.183927 L37.5162644,15.183927 L37.5162644,9.590177 Z M34.9693894,15.183927 L33.6725144,15.183927 L33.6725144,9.590177 L34.9693894,9.590177 L34.9693894,15.183927 Z M37.6100144,12.887052 L34.8756394,12.887052 L34.8756394,11.793302 L37.6100144,11.793302 L37.6100144,12.887052 Z M39.4020524,15.183927 L41.9020524,9.590177 L43.1833024,9.590177 L45.6833024,15.183927 L44.3239274,15.183927 L42.2770524,10.246427 L42.7926774,10.246427 L40.7301774,15.183927 L39.4020524,15.183927 Z M40.6520524,13.980802 L40.9958024,12.996427 L43.8864274,12.996427 L44.2301774,13.980802 L40.6520524,13.980802 Z M48.5283189,15.183927 L48.5283189,9.590177 L50.9658189,9.590177 C51.4658189,9.590177 51.8929022,9.67351033 52.2470689,9.840177 C52.6116522,9.996427 52.8929022,10.2255937 53.0908189,10.527677 C53.2887356,10.8297603 53.3876939,11.1943437 53.3876939,11.621427 C53.3876939,12.0380937 53.2887356,12.3974687 53.0908189,12.699552 C52.8929022,13.0016353 52.6116522,13.2360103 52.2470689,13.402677 C51.8929022,13.558927 51.4658189,13.637052 50.9658189,13.637052 L49.2626939,13.637052 L49.8251939,13.058927 L49.8251939,15.183927 L48.5283189,15.183927 Z M49.8251939,13.199552 L49.2626939,12.590177 L50.8876939,12.590177 C51.2835272,12.590177 51.5804022,12.5068437 51.7783189,12.340177 C51.9762356,12.1630937 52.0751939,11.9235103 52.0751939,11.621427 C52.0751939,11.308927 51.9762356,11.0693437 51.7783189,10.902677 C51.5804022,10.7255937 51.2835272,10.637052 50.8876939,10.637052 L49.2626939,10.637052 L49.8251939,10.027677 L49.8251939,13.199552 Z M53.2898699,15.183927 L55.7898699,9.590177 L57.0711199,9.590177 L59.5711199,15.183927 L58.2117449,15.183927 L56.1648699,10.246427 L56.6804949,10.246427 L54.6179949,15.183927 L53.2898699,15.183927 Z M54.5398699,13.980802 L54.8836199,12.996427 L57.7742449,12.996427 L58.1179949,13.980802 L54.5398699,13.980802 Z M61.9959093,15.277677 C61.5479926,15.277677 61.115701,15.2203853 60.6990343,15.105802 C60.2927843,14.980802 59.9646593,14.824552 59.7146593,14.637052 L60.1521593,13.652677 C60.4021593,13.8297603 60.6886176,13.9755937 61.0115343,14.090177 C61.3448676,14.1943437 61.678201,14.246427 62.0115343,14.246427 C62.2615343,14.246427 62.4646593,14.2203853 62.6209093,14.168302 C62.787576,14.1162187 62.9073676,14.043302 62.9802843,13.949552 C63.053201,13.855802 63.0896593,13.7516353 63.0896593,13.637052 C63.0896593,13.4912187 63.0271593,13.3766353 62.9021593,13.293302 C62.787576,13.199552 62.631326,13.1266353 62.4334093,13.074552 C62.2459093,13.012052 62.037576,12.9547603 61.8084093,12.902677 C61.5792426,12.8505937 61.3448676,12.7880937 61.1052843,12.715177 C60.8761176,12.6422603 60.6677843,12.5485103 60.4802843,12.433927 C60.2927843,12.3193437 60.1365343,12.168302 60.0115343,11.980802 C59.896951,11.7828853 59.8396593,11.5328853 59.8396593,11.230802 C59.8396593,10.9078853 59.9229926,10.6162187 60.0896593,10.355802 C60.2667426,10.0953853 60.5271593,9.887052 60.8709093,9.730802 C61.225076,9.56413533 61.6677843,9.480802 62.1990343,9.480802 C62.5427843,9.480802 62.8865343,9.52246867 63.2302843,9.605802 C63.5740343,9.68913533 63.8761176,9.81413533 64.1365343,9.980802 L63.7302843,10.965177 C63.4698676,10.8193437 63.209451,10.7099687 62.9490343,10.637052 C62.6886176,10.5641353 62.4334093,10.527677 62.1834093,10.527677 C61.9334093,10.527677 61.725076,10.558927 61.5584093,10.621427 C61.4021593,10.6735103 61.287576,10.746427 61.2146593,10.840177 C61.1521593,10.933927 61.1209093,11.043302 61.1209093,11.168302 C61.1209093,11.3141353 61.178201,11.433927 61.2927843,11.527677 C61.4073676,11.6110103 61.5584093,11.6787187 61.7459093,11.730802 C61.943826,11.7828853 62.1573676,11.8349687 62.3865343,11.887052 C62.6261176,11.9391353 62.8604926,12.0016353 63.0896593,12.074552 C63.318826,12.137052 63.5271593,12.230802 63.7146593,12.355802 C63.912576,12.4703853 64.068826,12.6266353 64.1834093,12.824552 C64.3084093,13.012052 64.3709093,13.2516353 64.3709093,13.543302 C64.3709093,13.855802 64.2823676,14.1422603 64.1052843,14.402677 C63.9386176,14.6630937 63.678201,14.8766353 63.3240343,15.043302 C62.9698676,15.199552 62.5271593,15.277677 61.9959093,15.277677 Z M67.0998369,15.277677 C66.6519202,15.277677 66.2196286,15.2203853 65.8029619,15.105802 C65.3967119,14.980802 65.0685869,14.824552 64.8185869,14.637052 L65.2560869,13.652677 C65.5060869,13.8297603 65.7925452,13.9755937 66.1154619,14.090177 C66.4487952,14.1943437 66.7821286,14.246427 67.1154619,14.246427 C67.3654619,14.246427 67.5685869,14.2203853 67.7248369,14.168302 C67.8915036,14.1162187 68.0112952,14.043302 68.0842119,13.949552 C68.1571286,13.855802 68.1935869,13.7516353 68.1935869,13.637052 C68.1935869,13.4912187 68.1310869,13.3766353 68.0060869,13.293302 C67.8915036,13.199552 67.7352536,13.1266353 67.5373369,13.074552 C67.3498369,13.012052 67.1415036,12.9547603 66.9123369,12.902677 C66.6831702,12.8505937 66.4487952,12.7880937 66.2092119,12.715177 C65.9800452,12.6422603 65.7717119,12.5485103 65.5842119,12.433927 C65.3967119,12.3193437 65.2404619,12.168302 65.1154619,11.980802 C65.0008786,11.7828853 64.9435869,11.5328853 64.9435869,11.230802 C64.9435869,10.9078853 65.0269202,10.6162187 65.1935869,10.355802 C65.3706702,10.0953853 65.6310869,9.887052 65.9748369,9.730802 C66.3290036,9.56413533 66.7717119,9.480802 67.3029619,9.480802 C67.6467119,9.480802 67.9904619,9.52246867 68.3342119,9.605802 C68.6779619,9.68913533 68.9800452,9.81413533 69.2404619,9.980802 L68.8342119,10.965177 C68.5737952,10.8193437 68.3133786,10.7099687 68.0529619,10.637052 C67.7925452,10.5641353 67.5373369,10.527677 67.2873369,10.527677 C67.0373369,10.527677 66.8290036,10.558927 66.6623369,10.621427 C66.5060869,10.6735103 66.3915036,10.746427 66.3185869,10.840177 C66.2560869,10.933927 66.2248369,11.043302 66.2248369,11.168302 C66.2248369,11.3141353 66.2821286,11.433927 66.3967119,11.527677 C66.5112952,11.6110103 66.6623369,11.6787187 66.8498369,11.730802 C67.0477536,11.7828853 67.2612952,11.8349687 67.4904619,11.887052 C67.7300452,11.9391353 67.9644202,12.0016353 68.1935869,12.074552 C68.4227536,12.137052 68.6310869,12.230802 68.8185869,12.355802 C69.0165036,12.4703853 69.1727536,12.6266353 69.2873369,12.824552 C69.4123369,13.012052 69.4748369,13.2516353 69.4748369,13.543302 C69.4748369,13.855802 69.3862952,14.1422603 69.2092119,14.402677 C69.0425452,14.6630937 68.7821286,14.8766353 68.4279619,15.043302 C68.0737952,15.199552 67.6310869,15.277677 67.0998369,15.277677 Z" id="Shape" fill="#783F04" fill-rule="nonzero"></path>
            </g>
        </g>
    </g>
</svg>
