<?xml version="1.0" standalone="no"?>
<!DOCTYPE svg PUBLIC "-//W3C//DTD SVG 20010904//EN"
 "http://www.w3.org/TR/2001/REC-SVG-20010904/DTD/svg10.dtd">
<svg version="1.0" xmlns="http://www.w3.org/2000/svg"
 width="1024.000000pt" height="1024.000000pt" viewBox="0 0 1024.000000 1024.000000"
 preserveAspectRatio="xMidYMid meet">
<metadata>
Created by potrace 1.14, written by Peter Selinger 2001-2017
</metadata>
<g transform="translate(0.000000,1024.000000) scale(0.100000,-0.100000)"
fill="#000000" stroke="none">
<path d="M5230 8449 c-247 -16 -515 -51 -742 -99 -986 -208 -1629 -729 -1902
-1540 -25 -74 -316 -1159 -647 -2410 -451 -1709 -602 -2294 -606 -2350 -7 -99
20 -172 87 -242 l48 -50 -34 4 c-19 2 -34 1 -34 -2 0 -18 62 -101 100 -133 85
-73 77 -72 705 -72 l560 0 74 24 c144 48 288 167 354 295 21 43 82 251 202
696 l171 635 1582 3 1582 2 0 65 0 65 45 0 44 0 3 -657 3 -658 28 -59 c36 -77
86 -137 146 -176 27 -18 63 -52 80 -75 17 -24 59 -62 92 -84 114 -76 102 -75
674 -79 346 -2 531 0 574 8 181 31 329 175 361 350 7 37 9 1086 8 3110 -3
2978 -3 3056 -22 3105 -49 127 -153 238 -253 269 -22 7 -22 6 -8 -27 8 -20 19
-55 24 -79 9 -42 9 -43 -7 -18 -41 62 -109 122 -171 153 l-66 32 -1465 1
c-806 1 -1521 -2 -1590 -7z m1580 -2534 l0 -1235 -1485 0 c-1100 0 -1485 3
-1485 11 0 7 5 29 12 50 l11 39 63 0 63 0 10 38 c231 853 385 1404 410 1467
134 347 434 627 789 739 183 58 194 58 890 63 l642 5 0 29 c0 27 2 29 40 29
l40 0 0 -1235z"/>
</g>
</svg>
