
<svg width="121px" height="19px" viewBox="0 0 121 19" version="1.1" xmlns="http://www.w3.org/2000/svg" xmlns:xlink="http://www.w3.org/1999/xlink">
    <g id="Page-1" stroke="none" stroke-width="1" fill="none" fill-rule="evenodd">
        <g id="Group-2" transform="translate(0.338600, 0.036745)">
            <path d="M5.68434189e-14,9.19685 L5.68434189e-14,9.19685 C5.68434189e-14,4.117571 4.1175537,0 9.196869,0 L111.464569,0 C113.903717,0 116.24295,0.9689512 117.967682,2.693695 C119.692475,4.4184398 120.661408,6.757694 120.661408,9.1968498 L120.661408,9.1968498 L120.661408,9.1968498 C120.661408,14.2761308 116.543854,18.3937018 111.46457,18.3937018 L9.1968696,18.3937018 C4.1175546,18.3937018 5.68434189e-14,14.2761308 5.68434189e-14,9.1968498 L5.68434189e-14,9.19685 Z" id="Path" fill="#DF11DF"></path>
            <path d="M15.4111,7.892475 C15.69235,7.892475 15.9683917,7.9706 16.239225,8.12685 C16.520475,8.27268333 16.739225,8.486225 16.895475,8.767475 C17.051725,9.03830833 17.12985,9.31955833 17.12985,9.611225 C17.12985,10.0903917 16.957975,10.50185 16.614225,10.8456 C16.2808917,11.1789333 15.87985,11.3456 15.4111,11.3456 C14.9319333,11.3456 14.5256833,11.1789333 14.19235,10.8456 C13.8590167,10.50185 13.69235,10.0903917 13.69235,9.611225 C13.69235,9.31955833 13.7652667,9.03830833 13.9111,8.767475 C14.06735,8.486225 14.2808917,8.27268333 14.551725,8.12685 C14.832975,7.9706 15.1194333,7.892475 15.4111,7.892475 Z" id="Path" fill="#FFFFFF" fill-rule="nonzero"></path>
            <path d="M28.2287,7.142475 C28.19745,7.204975 28.1609917,7.24664167 28.119325,7.267475 C28.088075,7.28830833 28.0412,7.298725 27.9787,7.298725 C27.9266167,7.298725 27.8641167,7.27789167 27.7912,7.236225 C27.7287,7.19455833 27.650575,7.15289167 27.556825,7.111225 C27.4734917,7.05914167 27.369325,7.01226667 27.244325,6.9706 C27.1297417,6.92893333 26.9891167,6.9081 26.82245,6.9081 C26.6766167,6.9081 26.5464083,6.92893333 26.431825,6.9706 C26.3172417,7.00185 26.2234917,7.048725 26.150575,7.111225 C26.0776583,7.173725 26.0203667,7.25185 25.9787,7.3456 C25.94745,7.42893333 25.931825,7.52268333 25.931825,7.62685 C25.931825,7.76226667 25.9682833,7.87685 26.0412,7.9706 C26.1141167,8.06435 26.213075,8.142475 26.338075,8.204975 C26.463075,8.267475 26.6037,8.32476667 26.75995,8.37685 C26.9266167,8.42893333 27.0932833,8.486225 27.25995,8.548725 C27.4266167,8.60080833 27.588075,8.66330833 27.744325,8.736225 C27.9109917,8.80914167 28.056825,8.9081 28.181825,9.0331 C28.306825,9.14768333 28.4057833,9.28830833 28.4787,9.454975 C28.5516167,9.62164167 28.588075,9.82476667 28.588075,10.06435 C28.588075,10.3247667 28.5412,10.5695583 28.44745,10.798725 C28.3641167,11.0278917 28.2339083,11.2258083 28.056825,11.392475 C27.8901583,11.5591417 27.681825,11.6945583 27.431825,11.798725 C27.1922417,11.892475 26.9109917,11.93935 26.588075,11.93935 C26.400575,11.93935 26.2182833,11.9185167 26.0412,11.87685 C25.8641167,11.8456 25.6922417,11.798725 25.525575,11.736225 C25.3589083,11.6633083 25.2026583,11.579975 25.056825,11.486225 C24.9214083,11.392475 24.7964083,11.2883083 24.681825,11.173725 L24.994325,10.6581 C25.025575,10.62685 25.0620333,10.6008083 25.1037,10.579975 C25.1453667,10.548725 25.1922417,10.5331 25.244325,10.5331 C25.306825,10.5331 25.3745333,10.5591417 25.44745,10.611225 C25.5307833,10.6633083 25.6245333,10.7258083 25.7287,10.798725 C25.8328667,10.861225 25.9578667,10.923725 26.1037,10.986225 C26.2495333,11.0383083 26.4214083,11.06435 26.619325,11.06435 C26.9214083,11.06435 27.1557833,10.9914333 27.32245,10.8456 C27.4995333,10.6997667 27.588075,10.4914333 27.588075,10.2206 C27.588075,10.06435 27.5464083,9.93935 27.463075,9.8456 C27.3901583,9.75185 27.2912,9.673725 27.1662,9.611225 C27.0412,9.53830833 26.8953667,9.48101667 26.7287,9.43935 C26.57245,9.38726667 26.4109917,9.33518333 26.244325,9.2831 C26.0776583,9.23101667 25.9162,9.16851667 25.75995,9.0956 C25.6037,9.02268333 25.463075,8.92893333 25.338075,8.81435 C25.213075,8.68935 25.1089083,8.53830833 25.025575,8.361225 C24.9526583,8.173725 24.9162,7.94976667 24.9162,7.68935 C24.9162,7.48101667 24.9578667,7.27789167 25.0412,7.079975 C25.1245333,6.87164167 25.244325,6.69455833 25.400575,6.548725 C25.5672417,6.392475 25.7651583,6.267475 25.994325,6.173725 C26.2339083,6.079975 26.5047417,6.0331 26.806825,6.0331 C27.150575,6.0331 27.463075,6.08518333 27.744325,6.18935 C28.0359917,6.29351667 28.2859917,6.44455833 28.494325,6.642475 L28.2287,7.142475 Z M30.2706312,7.767475 L30.2706312,10.37685 C30.2706312,10.62685 30.3279229,10.8247667 30.4425062,10.9706 C30.5570895,11.1060167 30.7289645,11.173725 30.9581312,11.173725 C31.1352145,11.173725 31.2966729,11.1372667 31.4425062,11.06435 C31.5883395,10.9810167 31.7289645,10.8716417 31.8643812,10.736225 L31.8643812,7.767475 L32.8487562,7.767475 L32.8487562,11.87685 L32.2550062,11.87685 C32.1195895,11.87685 32.0310479,11.81435 31.9893812,11.68935 L31.9268812,11.361225 C31.8435479,11.454975 31.7550062,11.5383083 31.6612562,11.611225 C31.5779229,11.673725 31.4841729,11.7310167 31.3800062,11.7831 C31.2758395,11.8351833 31.1612562,11.8716417 31.0362562,11.892475 C30.9216729,11.923725 30.7966729,11.93935 30.6612562,11.93935 C30.4320895,11.93935 30.2289645,11.9028917 30.0518812,11.829975 C29.8852145,11.7570583 29.7445895,11.6528917 29.6300062,11.517475 C29.5154229,11.3716417 29.4268812,11.204975 29.3643812,11.017475 C29.3018812,10.8195583 29.2706312,10.6060167 29.2706312,10.37685 L29.2706312,7.767475 L30.2706312,7.767475 Z M33.9123548,13.2206 L33.9123548,7.767475 L34.5061048,7.767475 C34.5790215,7.767475 34.6363131,7.7831 34.6779798,7.81435 C34.7196465,7.8456 34.7508965,7.892475 34.7717298,7.954975 L34.8498548,8.329975 C35.0165215,8.142475 35.2040215,7.99143333 35.4123548,7.87685 C35.6311048,7.75185 35.8811048,7.68935 36.1623548,7.68935 C36.3915215,7.68935 36.5998548,7.736225 36.7873548,7.829975 C36.9748548,7.923725 37.1311048,8.05914167 37.2561048,8.236225 C37.3915215,8.41330833 37.4956881,8.63205833 37.5686048,8.892475 C37.6415215,9.15289167 37.6779798,9.454975 37.6779798,9.798725 C37.6779798,10.1008083 37.6363131,10.3820583 37.5529798,10.642475 C37.4800631,10.9028917 37.3654798,11.1320583 37.2092298,11.329975 C37.0529798,11.517475 36.8654798,11.6685167 36.6467298,11.7831 C36.4279798,11.8872667 36.1883965,11.93935 35.9279798,11.93935 C35.6883965,11.93935 35.4852715,11.9028917 35.3186048,11.829975 C35.1623548,11.7570583 35.0217298,11.6581 34.8967298,11.5331 L34.8967298,13.2206 L33.9123548,13.2206 Z M35.8342298,8.4706 C35.6258965,8.4706 35.4488131,8.517475 35.3029798,8.611225 C35.1571465,8.69455833 35.0217298,8.81435 34.8967298,8.9706 L34.8967298,10.81435 C35.0113131,10.9497667 35.1311048,11.048725 35.2561048,11.111225 C35.3915215,11.1633083 35.5373548,11.18935 35.6936048,11.18935 C35.8394381,11.18935 35.9696465,11.1633083 36.0842298,11.111225 C36.2092298,11.048725 36.3133965,10.9601833 36.3967298,10.8456 C36.4800631,10.7310167 36.5425631,10.5851833 36.5842298,10.4081 C36.6363131,10.2310167 36.6623548,10.0278917 36.6623548,9.798725 C36.6623548,9.55914167 36.6415215,9.35601667 36.5998548,9.18935 C36.5686048,9.02268333 36.5165215,8.88726667 36.4436048,8.7831 C36.3706881,8.67893333 36.2821465,8.60080833 36.1779798,8.548725 C36.0738131,8.49664167 35.9592298,8.4706 35.8342298,8.4706 Z M38.4362806,13.2206 L38.4362806,7.767475 L39.0300306,7.767475 C39.1029473,7.767475 39.1602389,7.7831 39.2019056,7.81435 C39.2435723,7.8456 39.2748223,7.892475 39.2956556,7.954975 L39.3737806,8.329975 C39.5404473,8.142475 39.7279473,7.99143333 39.9362806,7.87685 C40.1550306,7.75185 40.4050306,7.68935 40.6862806,7.68935 C40.9154473,7.68935 41.1237806,7.736225 41.3112806,7.829975 C41.4987806,7.923725 41.6550306,8.05914167 41.7800306,8.236225 C41.9154473,8.41330833 42.0196139,8.63205833 42.0925306,8.892475 C42.1654473,9.15289167 42.2019056,9.454975 42.2019056,9.798725 C42.2019056,10.1008083 42.1602389,10.3820583 42.0769056,10.642475 C42.0039889,10.9028917 41.8894056,11.1320583 41.7331556,11.329975 C41.5769056,11.517475 41.3894056,11.6685167 41.1706556,11.7831 C40.9519056,11.8872667 40.7123223,11.93935 40.4519056,11.93935 C40.2123223,11.93935 40.0091973,11.9028917 39.8425306,11.829975 C39.6862806,11.7570583 39.5456556,11.6581 39.4206556,11.5331 L39.4206556,13.2206 L38.4362806,13.2206 Z M40.3581556,8.4706 C40.1498223,8.4706 39.9727389,8.517475 39.8269056,8.611225 C39.6810723,8.69455833 39.5456556,8.81435 39.4206556,8.9706 L39.4206556,10.81435 C39.5352389,10.9497667 39.6550306,11.048725 39.7800306,11.111225 C39.9154473,11.1633083 40.0612806,11.18935 40.2175306,11.18935 C40.3633639,11.18935 40.4935723,11.1633083 40.6081556,11.111225 C40.7331556,11.048725 40.8373223,10.9601833 40.9206556,10.8456 C41.0039889,10.7310167 41.0664889,10.5851833 41.1081556,10.4081 C41.1602389,10.2310167 41.1862806,10.0278917 41.1862806,9.798725 C41.1862806,9.55914167 41.1654473,9.35601667 41.1237806,9.18935 C41.0925306,9.02268333 41.0404473,8.88726667 40.9675306,8.7831 C40.8946139,8.67893333 40.8060723,8.60080833 40.7019056,8.548725 C40.5977389,8.49664167 40.4831556,8.4706 40.3581556,8.4706 Z M44.7102066,7.704975 C45.0122899,7.704975 45.2883316,7.75705833 45.5383316,7.861225 C45.7883316,7.954975 46.0018733,8.0956 46.1789566,8.2831 C46.3560399,8.46018333 46.4914566,8.67893333 46.5852066,8.93935 C46.6789566,9.19976667 46.7258316,9.49143333 46.7258316,9.81435 C46.7258316,10.1372667 46.6789566,10.4341417 46.5852066,10.704975 C46.4914566,10.9653917 46.3560399,11.18935 46.1789566,11.37685 C46.0018733,11.5539333 45.7883316,11.6945583 45.5383316,11.798725 C45.2883316,11.892475 45.0122899,11.93935 44.7102066,11.93935 C44.3977066,11.93935 44.1164566,11.892475 43.8664566,11.798725 C43.6164566,11.6945583 43.4029149,11.5539333 43.2258316,11.37685 C43.0487483,11.18935 42.9133316,10.9653917 42.8195816,10.704975 C42.7258316,10.4341417 42.6789566,10.1372667 42.6789566,9.81435 C42.6789566,9.49143333 42.7258316,9.19976667 42.8195816,8.93935 C42.9133316,8.67893333 43.0487483,8.46018333 43.2258316,8.2831 C43.4029149,8.0956 43.6164566,7.954975 43.8664566,7.861225 C44.1164566,7.75705833 44.3977066,7.704975 44.7102066,7.704975 Z M44.7102066,11.173725 C45.0539566,11.173725 45.3039566,11.0591417 45.4602066,10.829975 C45.6268733,10.6008083 45.7102066,10.267475 45.7102066,9.829975 C45.7102066,9.38205833 45.6268733,9.04351667 45.4602066,8.81435 C45.3039566,8.58518333 45.0539566,8.4706 44.7102066,8.4706 C44.3664566,8.4706 44.1112483,8.58518333 43.9445816,8.81435 C43.7779149,9.04351667 43.6945816,9.38205833 43.6945816,9.829975 C43.6945816,10.267475 43.7779149,10.6008083 43.9445816,10.829975 C44.1112483,11.0591417 44.3664566,11.173725 44.7102066,11.173725 Z M47.5081802,11.87685 L47.5081802,7.767475 L48.0863052,7.767475 C48.1904719,7.767475 48.2581802,7.78830833 48.2894302,7.829975 C48.3310969,7.87164167 48.3623469,7.93414167 48.3831802,8.017475 L48.4300552,8.517475 C48.5863052,8.267475 48.7581802,8.06955833 48.9456802,7.923725 C49.1435969,7.767475 49.3675552,7.68935 49.6175552,7.68935 C49.8154719,7.68935 49.9821385,7.736225 50.1175552,7.829975 L49.9925552,8.579975 C49.9821385,8.62164167 49.9613052,8.65289167 49.9300552,8.673725 C49.9092219,8.69455833 49.8779719,8.704975 49.8363052,8.704975 C49.7946385,8.704975 49.7373469,8.69976667 49.6644302,8.68935 C49.6019302,8.66851667 49.5133885,8.6581 49.3988052,8.6581 C49.1904719,8.6581 49.0133885,8.71539167 48.8675552,8.829975 C48.7217219,8.93414167 48.5967219,9.0956 48.4925552,9.31435 L48.4925552,11.87685 L47.5081802,11.87685 Z M52.1198745,11.93935 C51.7657078,11.93935 51.4896662,11.8403917 51.2917495,11.642475 C51.1042495,11.4341417 51.0104995,11.1528917 51.0104995,10.798725 L51.0104995,8.517475 L50.6042495,8.517475 C50.5417495,8.517475 50.4896662,8.50185 50.4479995,8.4706 C50.4167495,8.42893333 50.4011245,8.37164167 50.4011245,8.298725 L50.4011245,7.9081 L51.0573745,7.798725 L51.2761245,6.68935 C51.2865412,6.63726667 51.3073745,6.5956 51.3386245,6.56435 C51.3802912,6.5331 51.4323745,6.517475 51.4948745,6.517475 L51.9948745,6.517475 L51.9948745,7.81435 L53.0886245,7.81435 L53.0886245,8.517475 L51.9948745,8.517475 L51.9948745,10.736225 C51.9948745,10.861225 52.0261245,10.9601833 52.0886245,11.0331 C52.1615412,11.1060167 52.2500828,11.142475 52.3542495,11.142475 C52.4167495,11.142475 52.4688328,11.1372667 52.5104995,11.12685 C52.5521662,11.1060167 52.5886245,11.0903917 52.6198745,11.079975 C52.6511245,11.0591417 52.6771662,11.0435167 52.6979995,11.0331 C52.7188328,11.0122667 52.7448745,11.00185 52.7761245,11.00185 C52.7969578,11.00185 52.8177912,11.0122667 52.8386245,11.0331 C52.8594578,11.0435167 52.8802912,11.06435 52.9011245,11.0956 L53.1979995,11.579975 C53.0521662,11.6945583 52.8854995,11.7831 52.6979995,11.8456 C52.5104995,11.9081 52.3177912,11.93935 52.1198745,11.93935 Z M56.3223281,7.767475 L56.3223281,10.37685 C56.3223281,10.62685 56.3796198,10.8247667 56.4942031,10.9706 C56.6087864,11.1060167 56.7806614,11.173725 57.0098281,11.173725 C57.1869114,11.173725 57.3483698,11.1372667 57.4942031,11.06435 C57.6400364,10.9810167 57.7806614,10.8716417 57.9160781,10.736225 L57.9160781,7.767475 L58.9004531,7.767475 L58.9004531,11.87685 L58.3067031,11.87685 C58.1712864,11.87685 58.0827448,11.81435 58.0410781,11.68935 L57.9785781,11.361225 C57.8952448,11.454975 57.8067031,11.5383083 57.7129531,11.611225 C57.6296198,11.673725 57.5358698,11.7310167 57.4317031,11.7831 C57.3275364,11.8351833 57.2129531,11.8716417 57.0879531,11.892475 C56.9733698,11.923725 56.8483698,11.93935 56.7129531,11.93935 C56.4837864,11.93935 56.2806614,11.9028917 56.1035781,11.829975 C55.9369114,11.7570583 55.7962864,11.6528917 55.6817031,11.517475 C55.5671198,11.3716417 55.4785781,11.204975 55.4160781,11.017475 C55.3535781,10.8195583 55.3223281,10.6060167 55.3223281,10.37685 L55.3223281,7.767475 L56.3223281,7.767475 Z M62.4014907,8.579975 C62.3702407,8.62164167 62.3389907,8.65289167 62.3077407,8.673725 C62.2869074,8.68414167 62.250449,8.68935 62.1983657,8.68935 C62.156699,8.68935 62.1046157,8.67893333 62.0421157,8.6581 C61.9900324,8.62685 61.9275324,8.5956 61.8546157,8.56435 C61.781699,8.52268333 61.6983657,8.49143333 61.6046157,8.4706 C61.5212824,8.43935 61.4171157,8.423725 61.2921157,8.423725 C61.094199,8.423725 60.937949,8.46539167 60.8233657,8.548725 C60.7087824,8.63205833 60.6514907,8.74143333 60.6514907,8.87685 C60.6514907,8.96018333 60.6775324,9.0331 60.7296157,9.0956 C60.7921157,9.1581 60.8702407,9.21539167 60.9639907,9.267475 C61.0681574,9.30914167 61.1775324,9.35080833 61.2921157,9.392475 C61.4171157,9.423725 61.5421157,9.46018333 61.6671157,9.50185 C61.7921157,9.54351667 61.9119074,9.59039167 62.0264907,9.642475 C62.1514907,9.69455833 62.2608657,9.76226667 62.3546157,9.8456 C62.4483657,9.92893333 62.5212824,10.0331 62.5733657,10.1581 C62.6358657,10.2726833 62.6671157,10.4133083 62.6671157,10.579975 C62.6671157,10.7778917 62.6306574,10.9601833 62.5577407,11.12685 C62.484824,11.2935167 62.375449,11.43935 62.2296157,11.56435 C62.094199,11.6789333 61.922324,11.7726833 61.7139907,11.8456 C61.516074,11.9081 61.2869074,11.93935 61.0264907,11.93935 C60.8806574,11.93935 60.7400324,11.923725 60.6046157,11.892475 C60.469199,11.8716417 60.3389907,11.8403917 60.2139907,11.798725 C60.0994074,11.7570583 59.984824,11.704975 59.8702407,11.642475 C59.766074,11.579975 59.6775324,11.5122667 59.6046157,11.43935 L59.8233657,11.06435 C59.8546157,11.0122667 59.891074,10.9758083 59.9327407,10.954975 C59.9744074,10.9341417 60.0264907,10.923725 60.0889907,10.923725 C60.1514907,10.923725 60.2087824,10.93935 60.2608657,10.9706 C60.312949,11.00185 60.375449,11.0383083 60.4483657,11.079975 C60.5212824,11.1216417 60.6046157,11.1633083 60.6983657,11.204975 C60.8025324,11.236225 60.9275324,11.25185 61.0733657,11.25185 C61.187949,11.25185 61.2869074,11.236225 61.3702407,11.204975 C61.453574,11.173725 61.5212824,11.1372667 61.5733657,11.0956 C61.6358657,11.0539333 61.6775324,11.00185 61.6983657,10.93935 C61.7296157,10.87685 61.7452407,10.81435 61.7452407,10.75185 C61.7452407,10.6581 61.7139907,10.579975 61.6514907,10.517475 C61.5994074,10.454975 61.5264907,10.4028917 61.4327407,10.361225 C61.3389907,10.3091417 61.2296157,10.267475 61.1046157,10.236225 C60.9796157,10.1945583 60.8546157,10.1528917 60.7296157,10.111225 C60.6046157,10.0695583 60.4796157,10.0226833 60.3546157,9.9706 C60.2400324,9.9081 60.1306574,9.83518333 60.0264907,9.75185 C59.9327407,9.6581 59.8546157,9.548725 59.7921157,9.423725 C59.7400324,9.298725 59.7139907,9.142475 59.7139907,8.954975 C59.7139907,8.78830833 59.7452407,8.63205833 59.8077407,8.486225 C59.8806574,8.329975 59.9796157,8.19455833 60.1046157,8.079975 C60.2400324,7.96539167 60.4014907,7.87685 60.5889907,7.81435 C60.7869074,7.74143333 61.016074,7.704975 61.2764907,7.704975 C61.5577407,7.704975 61.812949,7.75185 62.0421157,7.8456 C62.2712824,7.93935 62.4639907,8.06435 62.6202407,8.2206 L62.4014907,8.579975 Z M69.1289077,11.142475 C68.9518244,11.142475 68.790366,11.1008083 68.6445327,11.017475 C68.509116,10.9341417 68.4101577,10.7935167 68.3476577,10.5956 C68.1914077,10.7935167 68.024741,10.9341417 67.8476577,11.017475 C67.6705744,11.1008083 67.4830744,11.142475 67.2851577,11.142475 C67.118491,11.142475 66.9726577,11.111225 66.8476577,11.048725 C66.7226577,10.986225 66.618491,10.9081 66.5351577,10.81435 C66.4518244,10.7101833 66.3893244,10.5903917 66.3476577,10.454975 C66.305991,10.3091417 66.2851577,10.1528917 66.2851577,9.986225 C66.2851577,9.829975 66.3007827,9.673725 66.3320327,9.517475 C66.3736994,9.361225 66.430991,9.21018333 66.5039077,9.06435 C66.587241,8.91851667 66.6861994,8.7831 66.8007827,8.6581 C66.9257827,8.5331 67.0664077,8.423725 67.2226577,8.329975 C67.3789077,8.236225 67.5507827,8.16330833 67.7382827,8.111225 C67.9361994,8.048725 68.1549494,8.017475 68.3945327,8.017475 C68.602866,8.017475 68.7799494,8.03830833 68.9257827,8.079975 C69.071616,8.111225 69.212241,8.15289167 69.3476577,8.204975 L68.9570327,9.68935 C68.915366,9.86643333 68.8945327,10.0122667 68.8945327,10.12685 C68.8945327,10.1997667 68.9049494,10.267475 68.9257827,10.329975 C68.946616,10.3820583 68.9726577,10.423725 69.0039077,10.454975 C69.0351577,10.486225 69.0768244,10.5070583 69.1289077,10.517475 C69.180991,10.5278917 69.2330744,10.5331 69.2851577,10.5331 C69.399741,10.5331 69.5039077,10.4966417 69.5976577,10.423725 C69.7018244,10.3508083 69.790366,10.25185 69.8632827,10.12685 C69.9361994,10.00185 69.993491,9.85080833 70.0351577,9.673725 C70.087241,9.49664167 70.1132827,9.30393333 70.1132827,9.0956 C70.1132827,8.75185 70.055991,8.44976667 69.9414077,8.18935 C69.837241,7.91851667 69.6861994,7.69455833 69.4882827,7.517475 C69.3007827,7.34039167 69.071616,7.21018333 68.8007827,7.12685 C68.5299494,7.0331 68.2330744,6.986225 67.9101577,6.986225 C67.5664077,6.986225 67.243491,7.05393333 66.9414077,7.18935 C66.6393244,7.31435 66.3789077,7.49143333 66.1601577,7.7206 C65.9414077,7.94976667 65.7695327,8.2206 65.6445327,8.5331 C65.5195327,8.8456 65.4570327,9.18414167 65.4570327,9.548725 C65.4570327,9.986225 65.524741,10.3716417 65.6601577,10.704975 C65.7955744,11.0278917 65.9830744,11.3039333 66.2226577,11.5331 C66.462241,11.75185 66.743491,11.9185167 67.0664077,12.0331 C67.3893244,12.1476833 67.7330744,12.204975 68.0976577,12.204975 C68.305991,12.204975 68.4986994,12.18935 68.6757827,12.1581 C68.852866,12.1372667 69.0143244,12.1060167 69.1601577,12.06435 C69.3164077,12.0331 69.4570327,11.9914333 69.5820327,11.93935 C69.7070327,11.8872667 69.8164077,11.8351833 69.9101577,11.7831 C69.962241,11.75185 70.009116,11.736225 70.0507827,11.736225 C70.1236994,11.736225 70.1757827,11.7778917 70.2070327,11.861225 L70.3476577,12.2206 C70.0664077,12.4081 69.7382827,12.5591417 69.3632827,12.673725 C68.9986994,12.7883083 68.5768244,12.8456 68.0976577,12.8456 C67.618491,12.8456 67.1705744,12.767475 66.7539077,12.611225 C66.3476577,12.4653917 65.993491,12.2466417 65.6914077,11.954975 C65.399741,11.673725 65.165366,11.329975 64.9882827,10.923725 C64.821616,10.517475 64.7382827,10.0591417 64.7382827,9.548725 C64.7382827,9.25705833 64.774741,8.98101667 64.8476577,8.7206 C64.9205744,8.44976667 65.024741,8.19455833 65.1601577,7.954975 C65.2955744,7.71539167 65.4570327,7.49664167 65.6445327,7.298725 C65.8424494,7.10080833 66.055991,6.93414167 66.2851577,6.798725 C66.524741,6.65289167 66.7799494,6.54351667 67.0507827,6.4706 C67.3320327,6.38726667 67.618491,6.3456 67.9101577,6.3456 C68.2955744,6.3456 68.6601577,6.41330833 69.0039077,6.548725 C69.3580744,6.673725 69.665366,6.85601667 69.9257827,7.0956 C70.196616,7.32476667 70.4101577,7.611225 70.5664077,7.954975 C70.7330744,8.28830833 70.8164077,8.66851667 70.8164077,9.0956 C70.8164077,9.37685 70.774741,9.642475 70.6914077,9.892475 C70.6080744,10.142475 70.4882827,10.361225 70.3320327,10.548725 C70.1861994,10.736225 70.009116,10.8820583 69.8007827,10.986225 C69.602866,11.0903917 69.3789077,11.142475 69.1289077,11.142475 Z M67.4882827,10.50185 C67.5507827,10.50185 67.618491,10.4914333 67.6914077,10.4706 C67.7643244,10.4497667 67.8320327,10.4133083 67.8945327,10.361225 C67.9570327,10.298725 68.0143244,10.2258083 68.0664077,10.142475 C68.118491,10.048725 68.165366,9.93414167 68.2070327,9.798725 L68.4882827,8.673725 C68.4049494,8.65289167 68.3164077,8.642475 68.2226577,8.642475 C68.0664077,8.642475 67.915366,8.67893333 67.7695327,8.75185 C67.6236994,8.82476667 67.4986994,8.923725 67.3945327,9.048725 C67.290366,9.173725 67.2070327,9.31435 67.1445327,9.4706 C67.0820327,9.62685 67.0507827,9.78830833 67.0507827,9.954975 C67.0507827,10.1320583 67.087241,10.267475 67.1601577,10.361225 C67.2330744,10.454975 67.3424494,10.50185 67.4882827,10.50185 Z M74.2996841,8.517475 L74.5496841,8.517475 C74.6434341,8.517475 74.7215591,8.50705833 74.7840591,8.486225 C74.8569758,8.454975 74.9194758,8.4081 74.9715591,8.3456 L76.5653091,6.31435 C76.6278091,6.23101667 76.6955174,6.173725 76.7684341,6.142475 C76.8413508,6.111225 76.9351008,6.0956 77.0496841,6.0956 L77.9871841,6.0956 L76.0340591,8.50185 C75.9715591,8.57476667 75.9090591,8.63726667 75.8465591,8.68935 C75.7944758,8.74143333 75.7371841,8.7831 75.6746841,8.81435 C75.7684341,8.8456 75.8465591,8.892475 75.9090591,8.954975 C75.9819758,9.00705833 76.0548924,9.079975 76.1278091,9.173725 L78.1278091,11.87685 L77.1746841,11.87685 C77.0496841,11.87685 76.9559341,11.861225 76.8934341,11.829975 C76.8309341,11.7883083 76.7788508,11.7310167 76.7371841,11.6581 L75.0965591,9.5331 C75.0444758,9.46018333 74.9819758,9.4081 74.9090591,9.37685 C74.8465591,9.3456 74.7528091,9.329975 74.6278091,9.329975 L74.2996841,9.329975 L74.2996841,11.87685 L73.2215591,11.87685 L73.2215591,6.0956 L74.2996841,6.0956 L74.2996841,8.517475 Z M79.7586074,7.767475 L79.7586074,11.87685 L78.7742324,11.87685 L78.7742324,7.767475 L79.7586074,7.767475 Z M79.9148574,6.579975 C79.9148574,6.66330833 79.8940241,6.74143333 79.8523574,6.81435 C79.8211074,6.88726667 79.7742324,6.954975 79.7117324,7.017475 C79.6596491,7.06955833 79.5919407,7.111225 79.5086074,7.142475 C79.4356907,7.173725 79.3575657,7.18935 79.2742324,7.18935 C79.1804824,7.18935 79.0971491,7.173725 79.0242324,7.142475 C78.9513157,7.111225 78.8836074,7.06955833 78.8211074,7.017475 C78.7690241,6.954975 78.7273574,6.88726667 78.6961074,6.81435 C78.6648574,6.74143333 78.6492324,6.66330833 78.6492324,6.579975 C78.6492324,6.486225 78.6648574,6.40289167 78.6961074,6.329975 C78.7273574,6.25705833 78.7690241,6.19455833 78.8211074,6.142475 C78.8836074,6.079975 78.9513157,6.0331 79.0242324,6.00185 C79.0971491,5.96018333 79.1804824,5.93935 79.2742324,5.93935 C79.3575657,5.93935 79.4356907,5.96018333 79.5086074,6.00185 C79.5919407,6.0331 79.6596491,6.079975 79.7117324,6.142475 C79.7742324,6.19455833 79.8211074,6.25705833 79.8523574,6.329975 C79.8940241,6.40289167 79.9148574,6.486225 79.9148574,6.579975 Z M83.7547012,8.642475 C83.7338679,8.673725 83.7078262,8.704975 83.6765762,8.736225 C83.6453262,8.75705833 83.6036595,8.767475 83.5515762,8.767475 C83.4994929,8.767475 83.4474095,8.75185 83.3953262,8.7206 C83.3536595,8.68935 83.2963679,8.65289167 83.2234512,8.611225 C83.1609512,8.56955833 83.0828262,8.5331 82.9890762,8.50185 C82.9057429,8.4706 82.7911595,8.454975 82.6453262,8.454975 C82.4786595,8.454975 82.3276179,8.486225 82.1922012,8.548725 C82.0672012,8.611225 81.9578262,8.704975 81.8640762,8.829975 C81.7807429,8.94455833 81.7182429,9.08518333 81.6765762,9.25185 C81.6349095,9.41851667 81.6140762,9.60601667 81.6140762,9.81435 C81.6140762,10.0331 81.6349095,10.2310167 81.6765762,10.4081 C81.7286595,10.5747667 81.7963679,10.7153917 81.8797012,10.829975 C81.9734512,10.9445583 82.0828262,11.0331 82.2078262,11.0956 C82.3328262,11.1581 82.4734512,11.18935 82.6297012,11.18935 C82.7859512,11.18935 82.9109512,11.1685167 83.0047012,11.12685 C83.1088679,11.0851833 83.1922012,11.0435167 83.2547012,11.00185 C83.3276179,10.9497667 83.3849095,10.9081 83.4265762,10.87685 C83.4786595,10.8351833 83.5359512,10.81435 83.5984512,10.81435 C83.6817845,10.81435 83.7390762,10.8456 83.7703262,10.9081 L84.0672012,11.267475 C83.9526179,11.392475 83.8276179,11.50185 83.6922012,11.5956 C83.5672012,11.6789333 83.4369929,11.7466417 83.3015762,11.798725 C83.1661595,11.8508083 83.0255345,11.8872667 82.8797012,11.9081 C82.7338679,11.9289333 82.5880345,11.93935 82.4422012,11.93935 C82.1922012,11.93935 81.9526179,11.892475 81.7234512,11.798725 C81.5047012,11.704975 81.3119929,11.5695583 81.1453262,11.392475 C80.9786595,11.204975 80.8432429,10.9810167 80.7390762,10.7206 C80.6453262,10.4497667 80.5984512,10.1476833 80.5984512,9.81435 C80.5984512,9.51226667 80.6401179,9.236225 80.7234512,8.986225 C80.8172012,8.72580833 80.9474095,8.50185 81.1140762,8.31435 C81.2807429,8.12685 81.4890762,7.98101667 81.7390762,7.87685 C81.9890762,7.76226667 82.2755345,7.704975 82.5984512,7.704975 C82.9005345,7.704975 83.1661595,7.75705833 83.3953262,7.861225 C83.6244929,7.954975 83.8328262,8.0956 84.0203262,8.2831 L83.7547012,8.642475 Z M85.6956802,5.93935 L85.6956802,9.329975 L85.8831802,9.329975 C85.9456802,9.329975 85.9925552,9.32476667 86.0238052,9.31435 C86.0654719,9.29351667 86.1071385,9.25705833 86.1488052,9.204975 L87.1800552,7.93935 C87.2217219,7.88726667 87.2685969,7.8456 87.3206802,7.81435 C87.3727635,7.7831 87.4404719,7.767475 87.5238052,7.767475 L88.4144302,7.767475 L87.1488052,9.298725 C87.0967219,9.35080833 87.0446385,9.40289167 86.9925552,9.454975 C86.9508885,9.49664167 86.9040135,9.53830833 86.8519302,9.579975 C86.9040135,9.611225 86.9508885,9.6581 86.9925552,9.7206 C87.0342219,9.77268333 87.0758885,9.829975 87.1175552,9.892475 L88.4925552,11.87685 L87.6019302,11.87685 C87.5185969,11.87685 87.4508885,11.8664333 87.3988052,11.8456 C87.3467219,11.81435 87.2998469,11.767475 87.2581802,11.704975 L86.2113052,10.142475 C86.1696385,10.079975 86.1279719,10.0435167 86.0863052,10.0331 C86.0550552,10.0122667 85.9977635,10.00185 85.9144302,10.00185 L85.6956802,10.00185 L85.6956802,11.87685 L84.7113052,11.87685 L84.7113052,5.93935 L85.6956802,5.93935 Z M91.5451065,8.579975 C91.5138565,8.62164167 91.4826065,8.65289167 91.4513565,8.673725 C91.4305232,8.68414167 91.3940648,8.68935 91.3419815,8.68935 C91.3003148,8.68935 91.2482315,8.67893333 91.1857315,8.6581 C91.1336482,8.62685 91.0711482,8.5956 90.9982315,8.56435 C90.9253148,8.52268333 90.8419815,8.49143333 90.7482315,8.4706 C90.6648982,8.43935 90.5607315,8.423725 90.4357315,8.423725 C90.2378148,8.423725 90.0815648,8.46539167 89.9669815,8.548725 C89.8523982,8.63205833 89.7951065,8.74143333 89.7951065,8.87685 C89.7951065,8.96018333 89.8211482,9.0331 89.8732315,9.0956 C89.9357315,9.1581 90.0138565,9.21539167 90.1076065,9.267475 C90.2117732,9.30914167 90.3211482,9.35080833 90.4357315,9.392475 C90.5607315,9.423725 90.6857315,9.46018333 90.8107315,9.50185 C90.9357315,9.54351667 91.0555232,9.59039167 91.1701065,9.642475 C91.2951065,9.69455833 91.4044815,9.76226667 91.4982315,9.8456 C91.5919815,9.92893333 91.6648982,10.0331 91.7169815,10.1581 C91.7794815,10.2726833 91.8107315,10.4133083 91.8107315,10.579975 C91.8107315,10.7778917 91.7742732,10.9601833 91.7013565,11.12685 C91.6284398,11.2935167 91.5190648,11.43935 91.3732315,11.56435 C91.2378148,11.6789333 91.0659398,11.7726833 90.8576065,11.8456 C90.6596898,11.9081 90.4305232,11.93935 90.1701065,11.93935 C90.0242732,11.93935 89.8836482,11.923725 89.7482315,11.892475 C89.6128148,11.8716417 89.4826065,11.8403917 89.3576065,11.798725 C89.2430232,11.7570583 89.1284398,11.704975 89.0138565,11.642475 C88.9096898,11.579975 88.8211482,11.5122667 88.7482315,11.43935 L88.9669815,11.06435 C88.9982315,11.0122667 89.0346898,10.9758083 89.0763565,10.954975 C89.1180232,10.9341417 89.1701065,10.923725 89.2326065,10.923725 C89.2951065,10.923725 89.3523982,10.93935 89.4044815,10.9706 C89.4565648,11.00185 89.5190648,11.0383083 89.5919815,11.079975 C89.6648982,11.1216417 89.7482315,11.1633083 89.8419815,11.204975 C89.9461482,11.236225 90.0711482,11.25185 90.2169815,11.25185 C90.3315648,11.25185 90.4305232,11.236225 90.5138565,11.204975 C90.5971898,11.173725 90.6648982,11.1372667 90.7169815,11.0956 C90.7794815,11.0539333 90.8211482,11.00185 90.8419815,10.93935 C90.8732315,10.87685 90.8888565,10.81435 90.8888565,10.75185 C90.8888565,10.6581 90.8576065,10.579975 90.7951065,10.517475 C90.7430232,10.454975 90.6701065,10.4028917 90.5763565,10.361225 C90.4826065,10.3091417 90.3732315,10.267475 90.2482315,10.236225 C90.1232315,10.1945583 89.9982315,10.1528917 89.8732315,10.111225 C89.7482315,10.0695583 89.6232315,10.0226833 89.4982315,9.9706 C89.3836482,9.9081 89.2742732,9.83518333 89.1701065,9.75185 C89.0763565,9.6581 88.9982315,9.548725 88.9357315,9.423725 C88.8836482,9.298725 88.8576065,9.142475 88.8576065,8.954975 C88.8576065,8.78830833 88.8888565,8.63205833 88.9513565,8.486225 C89.0242732,8.329975 89.1232315,8.19455833 89.2482315,8.079975 C89.3836482,7.96539167 89.5451065,7.87685 89.7326065,7.81435 C89.9305232,7.74143333 90.1596898,7.704975 90.4201065,7.704975 C90.7013565,7.704975 90.9565648,7.75185 91.1857315,7.8456 C91.4148982,7.93935 91.6076065,8.06435 91.7638565,8.2206 L91.5451065,8.579975 Z M93.9473282,11.93935 C93.5931615,11.93935 93.3171199,11.8403917 93.1192032,11.642475 C92.9317032,11.4341417 92.8379532,11.1528917 92.8379532,10.798725 L92.8379532,8.517475 L92.4317032,8.517475 C92.3692032,8.517475 92.3171199,8.50185 92.2754532,8.4706 C92.2442032,8.42893333 92.2285782,8.37164167 92.2285782,8.298725 L92.2285782,7.9081 L92.8848282,7.798725 L93.1035782,6.68935 C93.1139949,6.63726667 93.1348282,6.5956 93.1660782,6.56435 C93.2077449,6.5331 93.2598282,6.517475 93.3223282,6.517475 L93.8223282,6.517475 L93.8223282,7.81435 L94.9160782,7.81435 L94.9160782,8.517475 L93.8223282,8.517475 L93.8223282,10.736225 C93.8223282,10.861225 93.8535782,10.9601833 93.9160782,11.0331 C93.9889949,11.1060167 94.0775365,11.142475 94.1817032,11.142475 C94.2442032,11.142475 94.2962865,11.1372667 94.3379532,11.12685 C94.3796199,11.1060167 94.4160782,11.0903917 94.4473282,11.079975 C94.4785782,11.0591417 94.5046199,11.0435167 94.5254532,11.0331 C94.5462865,11.0122667 94.5723282,11.00185 94.6035782,11.00185 C94.6244115,11.00185 94.6452449,11.0122667 94.6660782,11.0331 C94.6869115,11.0435167 94.7077449,11.06435 94.7285782,11.0956 L95.0254532,11.579975 C94.8796199,11.6945583 94.7129532,11.7831 94.5254532,11.8456 C94.3379532,11.9081 94.1452449,11.93935 93.9473282,11.93935 Z M98.9182755,11.87685 L98.4651505,11.87685 C98.3714005,11.87685 98.2984838,11.8664333 98.2464005,11.8456 C98.1943172,11.81435 98.1526505,11.75185 98.1214005,11.6581 L98.0432755,11.37685 C97.9391088,11.4706 97.8349422,11.5539333 97.7307755,11.62685 C97.6370255,11.68935 97.5328588,11.7466417 97.4182755,11.798725 C97.3141088,11.8403917 97.1995255,11.8716417 97.0745255,11.892475 C96.9599422,11.923725 96.8297338,11.93935 96.6839005,11.93935 C96.5068172,11.93935 96.3453588,11.9185167 96.1995255,11.87685 C96.0536922,11.8247667 95.9286922,11.75185 95.8245255,11.6581 C95.7203588,11.56435 95.6370255,11.4497667 95.5745255,11.31435 C95.5224422,11.1789333 95.4964005,11.017475 95.4964005,10.829975 C95.4964005,10.673725 95.5328588,10.5226833 95.6057755,10.37685 C95.6891088,10.2206 95.8245255,10.0851833 96.0120255,9.9706 C96.2099422,9.8456 96.4651505,9.74143333 96.7776505,9.6581 C97.0901505,9.57476667 97.4807755,9.52789167 97.9495255,9.517475 L97.9495255,9.2831 C97.9495255,9.01226667 97.8922338,8.80914167 97.7776505,8.673725 C97.6630672,8.53830833 97.4911922,8.4706 97.2620255,8.4706 C97.1057755,8.4706 96.9755672,8.49143333 96.8714005,8.5331 C96.7672338,8.57476667 96.6734838,8.62164167 96.5901505,8.673725 C96.5068172,8.71539167 96.4339005,8.75705833 96.3714005,8.798725 C96.3089005,8.829975 96.2359838,8.8456 96.1526505,8.8456 C96.0901505,8.8456 96.0328588,8.829975 95.9807755,8.798725 C95.9286922,8.75705833 95.8922338,8.71018333 95.8714005,8.6581 L95.6839005,8.3456 C96.1526505,7.9081 96.7203588,7.68935 97.3870255,7.68935 C97.6266088,7.68935 97.8401505,7.73101667 98.0276505,7.81435 C98.2151505,7.89768333 98.3766088,8.00705833 98.5120255,8.142475 C98.6474422,8.27789167 98.7464005,8.44455833 98.8089005,8.642475 C98.8818172,8.84039167 98.9182755,9.05393333 98.9182755,9.2831 L98.9182755,11.87685 Z M96.9964005,11.267475 C97.0901505,11.267475 97.1786922,11.2570583 97.2620255,11.236225 C97.3557755,11.2153917 97.4391088,11.18935 97.5120255,11.1581 C97.5849422,11.1164333 97.6578588,11.0695583 97.7307755,11.017475 C97.8036922,10.954975 97.8766088,10.8872667 97.9495255,10.81435 L97.9495255,10.12685 C97.6578588,10.1372667 97.4130672,10.1633083 97.2151505,10.204975 C97.0276505,10.236225 96.8766088,10.2831 96.7620255,10.3456 C96.6474422,10.3976833 96.5641088,10.4601833 96.5120255,10.5331 C96.4599422,10.6060167 96.4339005,10.68935 96.4339005,10.7831 C96.4339005,10.9497667 96.4859838,11.0747667 96.5901505,11.1581 C96.6943172,11.2310167 96.8297338,11.267475 96.9964005,11.267475 Z M99.8874527,11.87685 L99.8874527,7.767475 L100.465578,7.767475 C100.569744,7.767475 100.637453,7.78830833 100.668703,7.829975 C100.710369,7.87164167 100.741619,7.93414167 100.762453,8.017475 L100.809328,8.517475 C100.965578,8.267475 101.137453,8.06955833 101.324953,7.923725 C101.522869,7.767475 101.746828,7.68935 101.996828,7.68935 C102.194744,7.68935 102.361411,7.736225 102.496828,7.829975 L102.371828,8.579975 C102.361411,8.62164167 102.340578,8.65289167 102.309328,8.673725 C102.288494,8.69455833 102.257244,8.704975 102.215578,8.704975 C102.173911,8.704975 102.116619,8.69976667 102.043703,8.68935 C101.981203,8.66851667 101.892661,8.6581 101.778078,8.6581 C101.569744,8.6581 101.392661,8.71539167 101.246828,8.829975 C101.100994,8.93414167 100.975994,9.0956 100.871828,9.31435 L100.871828,11.87685 L99.8874527,11.87685 Z M104.499147,11.93935 C104.14498,11.93935 103.868939,11.8403917 103.671022,11.642475 C103.483522,11.4341417 103.389772,11.1528917 103.389772,10.798725 L103.389772,8.517475 L102.983522,8.517475 C102.921022,8.517475 102.868939,8.50185 102.827272,8.4706 C102.796022,8.42893333 102.780397,8.37164167 102.780397,8.298725 L102.780397,7.9081 L103.436647,7.798725 L103.655397,6.68935 C103.665814,6.63726667 103.686647,6.5956 103.717897,6.56435 C103.759564,6.5331 103.811647,6.517475 103.874147,6.517475 L104.374147,6.517475 L104.374147,7.81435 L105.467897,7.81435 L105.467897,8.517475 L104.374147,8.517475 L104.374147,10.736225 C104.374147,10.861225 104.405397,10.9601833 104.467897,11.0331 C104.540814,11.1060167 104.629355,11.142475 104.733522,11.142475 C104.796022,11.142475 104.848105,11.1372667 104.889772,11.12685 C104.931439,11.1060167 104.967897,11.0903917 104.999147,11.079975 C105.030397,11.0591417 105.056439,11.0435167 105.077272,11.0331 C105.098105,11.0122667 105.124147,11.00185 105.155397,11.00185 C105.17623,11.00185 105.197064,11.0122667 105.217897,11.0331 C105.23873,11.0435167 105.259564,11.06435 105.280397,11.0956 L105.577272,11.579975 C105.431439,11.6945583 105.264772,11.7831 105.077272,11.8456 C104.889772,11.9081 104.697064,11.93935 104.499147,11.93935 Z" id="Shape" fill="#FFFFFF" fill-rule="nonzero"></path>
        </g>
    </g>
</svg>
