
<svg width="120px" height="39px" viewBox="0 0 120 39" version="1.1" xmlns="http://www.w3.org/2000/svg" xmlns:xlink="http://www.w3.org/1999/xlink">
    <g id="Page-1" stroke="none" stroke-width="1" fill="none" fill-rule="evenodd">
        <g id="Artboard" transform="translate(-905.000000, -130.000000)" fill-rule="nonzero">
            <g id="Group-6" transform="translate(905.000000, 130.000000)">
                <g id="Pink_x5F_UI_x5F_hover">
                    <g id="Group" opacity="0.6" transform="translate(0.307288, 3.624597)" fill="#190618">
                        <rect id="Rectangle" x="-2.04945025e-15" y="1.59964655e-15" width="117.104962" height="35.2475157"></rect>
                    </g>
                    <g id="Group" opacity="0.5" transform="translate(117.342463, 12.271849)" fill="#D33DA3">
                        <polygon id="Path" points="0.140699747 0 2.6102617 1.95975872 2.6102617 8.4705252 0 8.4705252"></polygon>
                    </g>
                    <g id="Group" opacity="0.5" transform="translate(117.342463, 21.145358)" fill="#D33DA3">
                        <polygon id="Path" points="0.140699747 8.4705252 2.6102617 6.51076648 2.6102617 0 0 0"></polygon>
                    </g>
                    <g id="Group" transform="translate(117.361598, 12.242582)" fill="#EA5CDC">
                        <path d="M2.63840165,8.5144256 L0,8.5144256 L0,8.49979213 L0.141825345,0 L2.63840165,1.98227174 L2.63840165,8.5144256 Z M0.0281399493,8.48628432 L2.6102617,8.48628432 L2.6102617,1.99577956 L0.168839696,0.0574082106 L0.0281399493,8.48628432 Z" id="Shape"></path>
                        <path d="M0.141825345,17.4025674 L0.141825345,17.3733005 L0,8.88814179 L2.63840165,8.88814179 L2.63840165,15.4202956 L2.63277366,15.4247982 L0.141825345,17.4025674 Z M0.0281399493,8.91628307 L0.168839696,17.3440335 L2.6102617,15.4056622 L2.6102617,8.91515742 L0.0281399493,8.91515742 L0.0281399493,8.91628307 Z" id="Shape"></path>
                    </g>
                    <g id="Group" transform="translate(117.327830, 12.242582)">
                        <path d="M2.63840165,8.5144256 L0,8.5144256 L0,8.49979213 L0.141825345,0 L2.63840165,1.98227174 L2.63840165,8.5144256 Z M0.0292655473,8.48628432 L2.6113873,8.48628432 L2.6113873,1.99577956 L0.169965294,0.0574082106 L0.0292655473,8.48628432 Z" id="Shape" fill="#EA5CDC"></path>
                        <path d="M0.141825345,17.4025674 L0.141825345,17.3733005 L0,8.88814179 L2.63840165,8.88814179 L2.63840165,15.4202956 L2.63277366,15.4247982 L0.141825345,17.4025674 Z M0.0292655473,8.91628307 L0.169965294,17.3440335 L2.6113873,15.4056622 L2.6113873,8.91515742 L0.0292655473,8.91515742 L0.0292655473,8.91628307 Z" id="Shape" fill="#D33DA3"></path>
                    </g>
                    <g id="White_x5F_pink_x5F_active_3_" transform="translate(0.303911, 0.054031)" fill="#FFDEFF">
                        <polygon id="White_x5F_pink_3_" points="0.144076541 3.5030265 0.146327737 0 68.4847575 0 71.9651065 3.48051348"></polygon>
                        <polygon id="Path" points="0 9.28549666 7.1666823 2.1263551 0.00225119595 2.1263551"></polygon>
                    </g>
                    <g id="White_x5F_pink_x5F_active_2_" transform="translate(0.307288, 0.000000)" fill="#FFDEFF">
                        <path d="M-2.04945025e-15,3.76305193 L0.00225119595,0.0337695357 L68.5804334,0 L72.2870275,3.70676937 L-2.04945025e-15,3.76305193 Z M0.239752368,0.226255889 L0.242003564,3.5030265 L71.7422381,3.48051348 L68.4870087,0.226255889 L0.239752368,0.226255889 Z" id="White_x5F_pink_2_"></path>
                    </g>
                    <path d="M3.39705469,3.59082729 L3.39705469,3.51428301 C3.39705469,3.32517361 3.26761092,3.20360328 3.08638964,3.20360328 L0.310665041,3.20360328 C0.329800206,3.20360328 0,3.34318403 0,3.51428301 L0,5.9130457 C0,6.08414468 0.139574149,6.22372543 0.310665041,6.22372543 L0.310665041,6.22372543 C0.481755933,6.22372543 0.621330082,6.08414468 0.621330082,5.9130457 L0.621330082,4.21218675 C0.621330082,4.04108777 0.76090423,3.90150702 0.931995122,3.90150702 L3.08638964,3.90150702 C3.25748054,3.90150702 3.39705469,3.76305193 3.39705469,3.59082729 Z" id="Pink_x5F_corner_1_" fill="#EA5CDC"></path>
                    <polygon id="Path" fill="#EA5CDC" points="117.569834 38.961039 0.186849264 38.961039 0.186849264 7.18390589 0.411968858 7.18390589 0.411968858 38.7359087 117.343589 38.7359087 117.343589 4.71310153 117.569834 4.71310153"></polygon>
                    <path d="M0.596566926,7.18390589 C0.596566926,7.34825096 0.463746365,7.4810778 0.299409061,7.4810778 C0.135071757,7.4810778 0.00225119595,7.34825096 0.00225119595,7.18390589 C0.00225119595,7.01956082 0.135071757,6.88673398 0.299409061,6.88673398 C0.463746365,6.88673398 0.596566926,7.01956082 0.596566926,7.18390589 Z" id="Path" fill="#EA5CDC"></path>
                    <rect id="hide_x5F_now_1_" fill="#D33DA3" x="3.87543382" y="3.20360328" width="113.72254" height="1"></rect>
                </g>
                <g id="CONTACT-US" transform="translate(20.472273, 15.500000)" fill="#FFFFFF">
                    <polygon id="Path" points="0 8.85 0 1.65 1.65 0 6.15 0 7.74 1.59 7.74 2.55 6.6 2.55 6.6 1.965 5.64 1.02 2.16 1.02 1.14 2.025 1.14 8.475 2.16 9.48 5.64 9.48 6.6 8.535 6.6 7.95 7.74 7.95 7.74 8.91 6.15 10.5 1.65 10.5"></polygon>
                    <path d="M8.91954545,8.85 L8.91954545,1.65 L10.5695455,0 L15.3095455,0 L16.9595455,1.65 L16.9595455,8.85 L15.3095455,10.5 L10.5695455,10.5 L8.91954545,8.85 Z M14.7995455,9.48 L15.8195455,8.475 L15.8195455,2.025 L14.7995455,1.02 L11.0795455,1.02 L10.0595455,2.025 L10.0595455,8.475 L11.0795455,9.48 L14.7995455,9.48 Z" id="Shape"></path>
                    <polygon id="Path" points="18.6640909 0 19.7740909 0 25.2490909 8.64 25.2790909 8.64 25.2790909 0 26.3590909 0 26.3590909 10.5 25.2490909 10.5 19.7740909 1.86 19.7440909 1.86 19.7440909 10.5 18.6640909 10.5"></polygon>
                    <polygon id="Path" points="30.6436364 1.005 27.4636364 1.005 27.4636364 0 34.9636364 0 34.9636364 1.005 31.7836364 1.005 31.7836364 10.5 30.6436364 10.5"></polygon>
                    <path d="M37.5531818,0 L38.7831818,0 L42.5181818,10.5 L41.3331818,10.5 L40.3581818,7.665 L35.9781818,7.665 L35.0031818,10.5 L33.8181818,10.5 L37.5531818,0 Z M40.0281818,6.675 L38.1831818,1.32 L38.1531818,1.32 L36.3231818,6.675 L40.0281818,6.675 Z" id="Shape"></path>
                    <polygon id="Path" points="43.0977273 8.85 43.0977273 1.65 44.7477273 0 49.2477273 0 50.8377273 1.59 50.8377273 2.55 49.6977273 2.55 49.6977273 1.965 48.7377273 1.02 45.2577273 1.02 44.2377273 2.025 44.2377273 8.475 45.2577273 9.48 48.7377273 9.48 49.6977273 8.535 49.6977273 7.95 50.8377273 7.95 50.8377273 8.91 49.2477273 10.5 44.7477273 10.5"></polygon>
                    <polygon id="Path" points="54.5222727 1.005 51.3422727 1.005 51.3422727 0 58.8422727 0 58.8422727 1.005 55.6622727 1.005 55.6622727 10.5 54.5222727 10.5"></polygon>
                    <polygon id="Path" points="63.0613636 8.85 63.0613636 0 64.2013636 0 64.2013636 8.475 65.2213636 9.48 68.6413636 9.48 69.6613636 8.475 69.6613636 0 70.8013636 0 70.8013636 8.85 69.1513636 10.5 64.7113636 10.5"></polygon>
                    <polygon id="Path" points="72.4309091 9.12 72.4309091 8.16 73.5559091 8.16 73.5559091 8.745 74.2759091 9.48 77.8759091 9.48 78.6259091 8.715 78.6259091 6.36 77.8759091 5.625 73.8409091 5.625 72.4609091 4.245 72.4609091 1.38 73.8409091 0 78.2509091 0 79.6309091 1.38 79.6309091 2.355 78.5209091 2.355 78.5209091 1.755 77.7709091 1.02 74.3359091 1.02 73.5859091 1.755 73.5859091 3.87 74.3359091 4.605 78.3709091 4.605 79.7509091 5.985 79.7509091 9.09 78.3409091 10.5 73.8109091 10.5"></polygon>
                </g>
            </g>
        </g>
    </g>
</svg>
