
<svg width="120px" height="39px" viewBox="0 0 120 39" version="1.1" xmlns="http://www.w3.org/2000/svg" xmlns:xlink="http://www.w3.org/1999/xlink">
    <g id="Page-1" stroke="none" stroke-width="1" fill="none" fill-rule="evenodd">
        <g id="Artboard" transform="translate(-100.000000, -129.000000)" fill-rule="nonzero">
            <g id="Group-5" transform="translate(100.000000, 129.000000)">
                <g id="Pink_x5F_UI_x5F_hover-Copy" transform="translate(60.000000, 19.480519) scale(-1, 1) translate(-60.000000, -19.480519) ">
                    <g id="Group" opacity="0.6" transform="translate(0.307288, 3.624597)" fill="#190618">
                        <rect id="Rectangle" x="-2.04945025e-15" y="1.59964655e-15" width="117.104962" height="35.2475157"></rect>
                    </g>
                    <g id="Group" opacity="0.5" transform="translate(117.342463, 12.271849)" fill="#D33DA3">
                        <polygon id="Path" points="0.140699747 0 2.6102617 1.95975872 2.6102617 8.4705252 0 8.4705252"></polygon>
                    </g>
                    <g id="Group" opacity="0.5" transform="translate(117.342463, 21.145358)" fill="#D33DA3">
                        <polygon id="Path" points="0.140699747 8.4705252 2.6102617 6.51076648 2.6102617 0 0 0"></polygon>
                    </g>
                    <g id="Group" transform="translate(117.361598, 12.242582)" fill="#EA5CDC">
                        <path d="M2.63840165,8.5144256 L0,8.5144256 L0,8.49979213 L0.141825345,0 L2.63840165,1.98227174 L2.63840165,8.5144256 Z M0.0281399493,8.48628432 L2.6102617,8.48628432 L2.6102617,1.99577956 L0.168839696,0.0574082106 L0.0281399493,8.48628432 Z" id="Shape"></path>
                        <path d="M0.141825345,17.4025674 L0.141825345,17.3733005 L0,8.88814179 L2.63840165,8.88814179 L2.63840165,15.4202956 L2.63277366,15.4247982 L0.141825345,17.4025674 Z M0.0281399493,8.91628307 L0.168839696,17.3440335 L2.6102617,15.4056622 L2.6102617,8.91515742 L0.0281399493,8.91515742 L0.0281399493,8.91628307 Z" id="Shape"></path>
                    </g>
                    <g id="Group" transform="translate(117.327830, 12.242582)">
                        <path d="M2.63840165,8.5144256 L0,8.5144256 L0,8.49979213 L0.141825345,0 L2.63840165,1.98227174 L2.63840165,8.5144256 Z M0.0292655473,8.48628432 L2.6113873,8.48628432 L2.6113873,1.99577956 L0.169965294,0.0574082106 L0.0292655473,8.48628432 Z" id="Shape" fill="#EA5CDC"></path>
                        <path d="M0.141825345,17.4025674 L0.141825345,17.3733005 L0,8.88814179 L2.63840165,8.88814179 L2.63840165,15.4202956 L2.63277366,15.4247982 L0.141825345,17.4025674 Z M0.0292655473,8.91628307 L0.169965294,17.3440335 L2.6113873,15.4056622 L2.6113873,8.91515742 L0.0292655473,8.91515742 L0.0292655473,8.91628307 Z" id="Shape" fill="#D33DA3"></path>
                    </g>
                    <g id="White_x5F_pink_x5F_active_3_" transform="translate(0.303911, 0.054031)" fill="#FFDEFF">
                        <polygon id="White_x5F_pink_3_" points="0.144076541 3.5030265 0.146327737 0 68.4847575 0 71.9651065 3.48051348"></polygon>
                        <polygon id="Path" points="0 9.28549666 7.1666823 2.1263551 0.00225119595 2.1263551"></polygon>
                    </g>
                    <g id="White_x5F_pink_x5F_active_2_" transform="translate(0.307288, 0.000000)" fill="#FFDEFF">
                        <path d="M-2.04945025e-15,3.76305193 L0.00225119595,0.0337695357 L68.5804334,0 L72.2870275,3.70676937 L-2.04945025e-15,3.76305193 Z M0.239752368,0.226255889 L0.242003564,3.5030265 L71.7422381,3.48051348 L68.4870087,0.226255889 L0.239752368,0.226255889 Z" id="White_x5F_pink_2_"></path>
                    </g>
                    <path d="M3.39705469,3.59082729 L3.39705469,3.51428301 C3.39705469,3.32517361 3.26761092,3.20360328 3.08638964,3.20360328 L0.310665041,3.20360328 C0.329800206,3.20360328 0,3.34318403 0,3.51428301 L0,5.9130457 C0,6.08414468 0.139574149,6.22372543 0.310665041,6.22372543 L0.310665041,6.22372543 C0.481755933,6.22372543 0.621330082,6.08414468 0.621330082,5.9130457 L0.621330082,4.21218675 C0.621330082,4.04108777 0.76090423,3.90150702 0.931995122,3.90150702 L3.08638964,3.90150702 C3.25748054,3.90150702 3.39705469,3.76305193 3.39705469,3.59082729 Z" id="Pink_x5F_corner_1_" fill="#EA5CDC"></path>
                    <polygon id="Path" fill="#EA5CDC" points="117.569834 38.961039 0.186849264 38.961039 0.186849264 7.18390589 0.411968858 7.18390589 0.411968858 38.7359087 117.343589 38.7359087 117.343589 4.71310153 117.569834 4.71310153"></polygon>
                    <path d="M0.596566926,7.18390589 C0.596566926,7.34825096 0.463746365,7.4810778 0.299409061,7.4810778 C0.135071757,7.4810778 0.00225119595,7.34825096 0.00225119595,7.18390589 C0.00225119595,7.01956082 0.135071757,6.88673398 0.299409061,6.88673398 C0.463746365,6.88673398 0.596566926,7.01956082 0.596566926,7.18390589 Z" id="Path" fill="#EA5CDC"></path>
                    <rect id="hide_x5F_now_1_" fill="#D33DA3" x="3.87543382" y="3.20360328" width="113.72254" height="1"></rect>
                </g>
                <g id="START-EDITOR" transform="translate(15.190000, 16.500000)" fill="#FFFFFF">
                    <polygon id="Path" points="0 9.12 0 8.16 1.125 8.16 1.125 8.745 1.845 9.48 5.445 9.48 6.195 8.715 6.195 6.36 5.445 5.625 1.41 5.625 0.03 4.245 0.03 1.38 1.41 0 5.82 0 7.2 1.38 7.2 2.355 6.09 2.355 6.09 1.755 5.34 1.02 1.905 1.02 1.155 1.755 1.155 3.87 1.905 4.605 5.94 4.605 7.32 5.985 7.32 9.09 5.91 10.5 1.38 10.5"></polygon>
                    <polygon id="Path" points="10.9295455 1.005 7.74954545 1.005 7.74954545 0 15.2495455 0 15.2495455 1.005 12.0695455 1.005 12.0695455 10.5 10.9295455 10.5"></polygon>
                    <path d="M17.8390909,0 L19.0690909,0 L22.8040909,10.5 L21.6190909,10.5 L20.6440909,7.665 L16.2640909,7.665 L15.2890909,10.5 L14.1040909,10.5 L17.8390909,0 Z M20.3140909,6.675 L18.4690909,1.32 L18.4390909,1.32 L16.6090909,6.675 L20.3140909,6.675 Z" id="Shape"></path>
                    <path d="M31.1986364,7.29 L31.1986364,10.5 L30.0586364,10.5 L30.0586364,7.605 L28.6186364,6.09 L24.8986364,6.09 L24.8986364,10.5 L23.7586364,10.5 L23.7586364,0 L29.7586364,0 L31.1386364,1.38 L31.1386364,4.695 L29.9236364,5.91 L31.1986364,7.29 Z M24.8986364,5.1 L29.2636364,5.1 L30.0136364,4.365 L30.0136364,1.725 L29.2636364,0.99 L24.8986364,0.99 L24.8986364,5.1 Z" id="Shape"></path>
                    <polygon id="Path" points="35.1831818 1.005 32.0031818 1.005 32.0031818 0 39.5031818 0 39.5031818 1.005 36.3231818 1.005 36.3231818 10.5 35.1831818 10.5"></polygon>
                    <polygon id="Path" points="43.7222727 0 50.5022727 0 50.5022727 1.02 44.8622727 1.02 44.8622727 4.71 50.0672727 4.71 50.0672727 5.73 44.8622727 5.73 44.8622727 9.48 50.5022727 9.48 50.5022727 10.5 43.7222727 10.5"></polygon>
                    <path d="M51.9068182,0 L57.9668182,0 L59.6168182,1.65 L59.6168182,8.85 L57.9668182,10.5 L51.9068182,10.5 L51.9068182,0 Z M57.4568182,9.48 L58.4768182,8.475 L58.4768182,2.025 L57.4568182,1.02 L53.0468182,1.02 L53.0468182,9.48 L57.4568182,9.48 Z" id="Shape"></path>
                    <polygon id="Path" points="61.3963636 0 62.5363636 0 62.5363636 10.5 61.3963636 10.5"></polygon>
                    <polygon id="Path" points="66.8959091 1.005 63.7159091 1.005 63.7159091 0 71.2159091 0 71.2159091 1.005 68.0359091 1.005 68.0359091 10.5 66.8959091 10.5"></polygon>
                    <path d="M71.9454545,8.85 L71.9454545,1.65 L73.5954545,0 L78.3354545,0 L79.9854545,1.65 L79.9854545,8.85 L78.3354545,10.5 L73.5954545,10.5 L71.9454545,8.85 Z M77.8254545,9.48 L78.8454545,8.475 L78.8454545,2.025 L77.8254545,1.02 L74.1054545,1.02 L73.0854545,2.025 L73.0854545,8.475 L74.1054545,9.48 L77.8254545,9.48 Z" id="Shape"></path>
                    <path d="M89.13,7.29 L89.13,10.5 L87.99,10.5 L87.99,7.605 L86.55,6.09 L82.83,6.09 L82.83,10.5 L81.69,10.5 L81.69,0 L87.69,0 L89.07,1.38 L89.07,4.695 L87.855,5.91 L89.13,7.29 Z M82.83,5.1 L87.195,5.1 L87.945,4.365 L87.945,1.725 L87.195,0.99 L82.83,0.99 L82.83,5.1 Z" id="Shape"></path>
                </g>
            </g>
        </g>
    </g>
</svg>
